<svg xmlns="http://www.w3.org/2000/svg" width="512" height="512" viewBox="0 0 46.436 46.435"><g fill="#FDFDFD"><path d="M44.039 11.613a9.99 9.99 0 00-12.925-1.942 9.992 9.992 0 00-13.071-.069 9.935 9.935 0 00-2.392 3.04c.415-.052.834-.08 1.257-.08.733 0 1.462.105 2.18.26.27-.335.568-.652.906-.942a6.986 6.986 0 019.832.741l.973 1.126 1.135-.964a6.984 6.984 0 019.828.781c2.506 2.924 2.164 7.343-.754 9.844l-4.386 3.737-7.343 6.257s-8.83-9.452-11.542-13.811c0 0-1.688-.359-2.847.715C16.803 24.69 27.005 35.36 27.005 35.36a2.991 2.991 0 004.213.328l7.348-6.261c2.352-2.004 4.294-3.659 4.385-3.735 4.181-3.583 4.669-9.899 1.088-14.079z"/><path d="M18.545 36.169L6.843 32.705a5.39 5.39 0 01-3.615-6.697 5.413 5.413 0 015.152-3.841c.513 0 1.024.074 1.521.221l1.428.42.432-1.424c.683-2.25 2.799-3.822 5.147-3.822a5.377 5.377 0 015.313 4.577l1.156 1.343 1.549 1.801.021.024c1.298-4.417-1.227-9.074-5.642-10.393a8.369 8.369 0 00-2.399-.353c-3.193 0-6.111 1.864-7.508 4.667a8.328 8.328 0 00-1.021-.063c-3.674 0-6.975 2.46-8.027 5.983-1.32 4.426 1.204 9.104 5.635 10.429l11.979 3.547c.251.074.511.112.771.112a2.732 2.732 0 002.599-1.931l1.221-4.051-2.319-2.697-1.691 5.612z"/></g></svg>