<svg xmlns="http://www.w3.org/2000/svg" width="512" height="512" viewBox="0 0 46 46"><path d="M25.984 15.901c-.004-.033 0-.095-.006-.129l-.285-1.717c1.613-1.605 3.629-3.618 3.686-3.676a4.992 4.992 0 001.471-3.552c0-1.34-.522-2.602-1.471-3.55a4.984 4.984 0 00-3.548-1.471A4.99 4.99 0 0023 2.678a4.992 4.992 0 00-2.832-.873 4.977 4.977 0 00-3.548 1.47c-.948.947-1.47 2.208-1.47 3.549s.522 2.601 1.461 3.539c.056.058 2.077 2.069 3.693 3.678l-.283 1.702c-.006.034-.002.123-.006.157-9.913 1.445-17.54 10.295-17.587 20.295H43.57c-.045-10-7.674-18.849-17.586-20.294zm-3.901-2.913a7855.03 7855.03 0 01-4.048-4.029 2.998 2.998 0 01-.884-2.134c0-.807.314-1.564.885-2.135a2.994 2.994 0 012.133-.884c.803 0 1.558.311 2.127.876a1 1 0 001.409 0c1.143-1.134 3.125-1.129 4.26.008a3 3 0 01.885 2.135c0 .806-.314 1.563-.885 2.134l-4.048 4.029a1.003 1.003 0 00-.281.873l.296 1.792c-.312-.014-.618-.047-.934-.047s-.623.033-.935.047l.298-1.792a.994.994 0 00-.278-.873zM43 38.195H3a3 3 0 100 6h40a3 3 0 000-6z" fill="#FDFDFD"/></svg>