<svg xmlns="http://www.w3.org/2000/svg" width="512" height="512" viewBox="0 0 45.953 45.953"><g fill="#FDFDFD"><path d="M45.589 1.816L44.123.35a1.189 1.189 0 00-1.686 0l-.85.85a2.225 2.225 0 00-3.095 2.05c0 .275.055.543.152.796a100.498 100.498 0 01-22.086 13.985l-.003.001a14.177 14.177 0 00-4.063 2.836l-.35.35a3.014 3.014 0 00-2.702.836L2 29.494a3.014 3.014 0 00-.836 2.703 3.944 3.944 0 00.006 5.572l7.026 7.027a3.947 3.947 0 005.575.006 3.011 3.011 0 002.703-.836l7.44-7.439a3.035 3.035 0 00.835-2.702l.351-.351a14.125 14.125 0 002.836-4.062l.001-.002A100.521 100.521 0 0141.936 7.307a2.225 2.225 0 002.33-.514 2.227 2.227 0 00.473-2.445l.85-.85a1.187 1.187 0 000-1.682zM22.5 35.114l-7.44 7.44a1.033 1.033 0 01-1.466 0L3.413 32.374a1.038 1.038 0 010-1.465l7.44-7.439a1.03 1.03 0 011.466 0l10.18 10.181c.405.402.405 1.058.001 1.463z"/><path d="M15.325 30.643a2.726 2.726 0 00-2.724-2.715 2.727 2.727 0 00-2.724 2.725l.012 4.945a.48.48 0 00.479.479c1.312.003 4.873.013 4.946.011a2.724 2.724 0 00.011-5.445z"/></g></svg>