<svg xmlns="http://www.w3.org/2000/svg" width="512" height="512" viewBox="0 0 45.973 45.973"><path d="M26.1 11.514a.65.65 0 00.892.211l5.688-3.498a3.677 3.677 0 001.195-5.063 3.675 3.675 0 00-5.049-1.202A3.68 3.68 0 0023.77.778a3.681 3.681 0 00-1.196 5.063c.053.083 2.591 4.168 3.526 5.673zM10.416 15.5c.76-1.832 2.823-6.806 2.863-6.907a4.118 4.118 0 00-7.606-3.152A4.12 4.12 0 00.311 7.686a4.12 4.12 0 002.239 5.376l6.92 2.832a.725.725 0 00.946-.394zm.211 9.13a2.591 2.591 0 00-3.649.295 2.595 2.595 0 00-3.346 3.967l3.602 3.036c.193.162.48.139.644-.054.81-.951 3.009-3.535 3.053-3.589a2.596 2.596 0 00-.304-3.655zm35.195-9.902a2.593 2.593 0 00-3.304-1.58 2.594 2.594 0 00-4.887 1.745c.023.065 1.167 3.26 1.587 4.438.085.237.346.36.583.276 1.178-.415 4.378-1.543 4.443-1.567a2.592 2.592 0 001.578-3.312zM14.16 18.094v18.202a4.73 4.73 0 00-4.733 4.837 4.74 4.74 0 004.607 4.61 4.727 4.727 0 004.847-4.723V21.754h11.228V31.3a4.712 4.712 0 00-4.711 4.848c.062 2.502 2.101 4.543 4.604 4.6a4.716 4.716 0 004.828-4.723V17.728a2.416 2.416 0 00-2.417-2.416h-15.47a2.783 2.783 0 00-2.783 2.782z" fill="#FDFDFD"/></svg>