<?xml version="1.0" encoding="UTF-8"?><svg id="Layer_1" xmlns="http://www.w3.org/2000/svg" viewBox="0 0 427 454.56"><defs><style>.cls-1{fill:#fff;}</style></defs><path class="cls-1" d="M299.52,402.61c-23.65-47.28-47.14-94.25-70.85-141.65-1.47,1.03-2.69,1.76-3.76,2.67-29.2,24.8-58.36,49.67-87.64,74.38-2.71,2.28-3.07,4.17-2.28,7.58,1.94,8.38,3.53,16.88,4.47,25.43,.73,6.64-1.3,12.89-7.99,15.82-7.94,3.47-15.96,1.77-21.87-3.92-18.95-18.27-37.48-36.99-55.88-55.82-4.46-4.56-5.78-10.83-5.1-17.22,.78-7.27,6.54-12.92,14.42-12.38,9.7,.67,19.32,2.7,28.92,4.44,2.47,.45,4.15,.79,6.06-1.47,25.48-30.16,51.08-60.22,76.64-90.31,.32-.37,.54-.83,1.27-1.95-47.16-23.6-94.21-47.13-141.69-70.89,4.53-9.05,8.79-17.83,13.41-26.41,.54-1.01,3.16-1.61,4.6-1.33,21.99,4.29,43.94,8.76,65.9,13.19,38.71,7.81,77.41,15.67,116.16,23.28,1.92,.38,4.83-.82,6.32-2.28,24.25-23.79,48.23-47.87,72.53-71.61,9.79-9.57,21.41-16.32,34.96-19.3,17.58-3.86,32.69,4.88,35.94,21.25,1.72,8.69,0,17.14-3.41,25.34-5.29,12.76-14.07,22.99-23.55,32.6-21.06,21.34-42.34,42.47-63.69,63.51-2.61,2.57-3.19,4.78-2.49,8.24,9.6,47.32,19.06,94.67,28.56,142.02,2.51,12.53,4.9,25.08,7.63,37.56,.83,3.76,0,5.64-3.58,7.27-7.98,3.64-15.73,7.79-24.03,11.96Z"/></svg>