<svg xmlns="http://www.w3.org/2000/svg" viewBox="0 0 296.345 296.345" width="512" height="512"><path d="M296.345 123.135c0-33.045-26.885-59.93-59.931-59.93a60.088 60.088 0 00-18.761 3.011c-3.265-13.481-10.442-25.758-20.796-35.325-13.123-12.127-30.196-18.806-48.075-18.806-33.114 0-61.503 23.19-68.957 54.52a59.944 59.944 0 00-19.893-3.4C26.885 63.206 0 90.09 0 123.135c0 24.032 14.55 45.663 36.196 55.025a64.038 64.038 0 00-1.114 11.916c0 35.284 28.705 63.989 63.987 63.989a63.93 63.93 0 0049.305-23.193 63.932 63.932 0 0049.307 23.193c35.281 0 63.985-28.705 63.985-63.989 0-4.068-.385-8.108-1.146-12.079 21.424-9.452 35.825-31.019 35.825-54.862zm-77.34 65.037h-47v-6.351l28.523-45.649h-29.523v-12h48v6.785l-28.799 46.215h28.799v11zm-142-52v-12h47v6.785l-28.584 46.215h28.584v11h-47v-6.351l28.738-45.649H77.005zm47-33v-11h47v5.962l-27.952 46.038h28.952v12h-48v-7.174l29.371-45.826h-29.371zM24.077 236.106C10.801 236.106 0 246.907 0 260.182c0 13.276 10.801 24.077 24.077 24.077 13.275 0 24.076-10.801 24.076-24.077 0-13.275-10.8-24.076-24.076-24.076z" fill="#FFF"/></svg>