<svg xmlns="http://www.w3.org/2000/svg" width="512" height="512" viewBox="0 0 45.221 45.221"><g fill="#FDFDFD"><path d="M13.02 22.611a7.642 7.642 0 00-10.784.021c-2.98 2.98-2.98 7.82 0 10.805.146.145 7.226 7.189 9.833 9.786a1.35 1.35 0 001.901 0l9.833-9.786a7.645 7.645 0 000-10.805 7.64 7.64 0 00-10.783-.021zm9.378-21.006a2.5 2.5 0 100 5c9.827 0 17.822 7.995 17.822 17.822a2.499 2.499 0 105 0c.002-12.584-10.237-22.822-22.822-22.822z"/><path d="M22.398 11.354a2.5 2.5 0 100 5c4.452 0 8.074 3.622 8.074 8.074a2.499 2.499 0 105 0c.002-7.21-5.865-13.074-13.074-13.074z"/></g></svg>