<svg xmlns="http://www.w3.org/2000/svg" width="512" height="512" viewBox="0 0 45.502 45.502"><path d="M36.688 14.674c-.691 0-1.402.081-2 .231v-5.82c0-1.815-7.764-3.285-17.343-3.285C7.765 5.8 0 7.27 0 9.085v27.332c0 1.814 7.765 3.285 17.344 3.285 9.58 0 17.343-1.471 17.343-3.285v-4.346a8.38 8.38 0 002 .232c4.859 0 8.814-3.955 8.814-8.814.001-4.86-3.954-8.815-8.813-8.815zm-10.76 12.261c-.115.116-5.768 5.741-7.849 7.812a1.077 1.077 0 01-1.518 0l-7.849-7.812a6.102 6.102 0 010-8.625 6.1 6.1 0 018.608-.017 6.1 6.1 0 018.608 8.642zM17.32 12.37c-7.829 0-14.176-.913-14.176-2.037S9.492 8.296 17.32 8.296c7.83 0 14.176.912 14.176 2.037S25.149 12.37 17.32 12.37zm19.368 16.002a4.74 4.74 0 01-2-.434V19.04a4.756 4.756 0 012-.434 4.89 4.89 0 014.883 4.883 4.89 4.89 0 01-4.883 4.883z" fill="#FDFDFD"/></svg>