<svg xmlns="http://www.w3.org/2000/svg" viewBox="0 0 427 454.56"><path d="M196.74 286.2c0-20.6-.06-41.2.07-61.8.02-2.82-1.49-3.1-3.52-3.67-27.46-7.63-46.84-24.49-57.79-50.87-4.16-10.01-5.67-20.54-5.66-31.33.01-19.28-.03-38.57.02-57.85.02-8.02 4.43-12.41 11.22-10.99 2.06.43 4.09 1.79 5.77 3.17 9.59 7.89 19.06 15.91 28.58 23.88 3.74 3.13 4.92 3.01 8.05-.85 5.64-6.97 11.2-14.02 16.89-20.95 7.39-8.99 18.83-9.03 26.19-.08 5.61 6.83 11.11 13.75 16.64 20.64 3.4 4.24 4.56 4.4 8.65.99 9.53-7.96 19.08-15.89 28.53-23.94 3.27-2.79 6.97-4.41 10.87-2.56 2.23 1.06 3.88 3.65 5.35 5.85.71 1.07.54 2.82.54 4.26-.05 20.73.24 41.48-.31 62.2-.95 35.67-27.1 68.54-61.47 78.05-1.89.52-3.77 1.11-5.75 1.69v65.54c.57-.75 1.03-1.16 1.25-1.67 9.8-23.31 28.45-36.68 51.18-45.33 5.87-2.24 12.31 1.85 12.83 8.64 1.84 23.87-1.47 46.58-18.58 64.95-11.46 12.3-25.84 20.41-41.79 25.5-3.59 1.15-4.56 2.67-4.53 6.29.19 20.34.13 40.68.07 61.02-.02 8.29-4.55 14.56-11.88 16.84-11.47 3.57-21.92-4.75-21.98-17.71-.09-20.47-.1-40.94.05-61.42.02-3.17-.87-4.43-3.95-5.45-19.87-6.54-37.4-16.74-49.23-34.59-10.24-15.45-12.8-32.97-12.03-51.13.11-2.61.26-5.33 1.08-7.77 1.69-5.02 7.3-7.79 12.14-5.96 20.72 7.82 38.14 19.76 48.84 39.87 1.16 2.17 2.06 4.48 3.07 6.72.2-.06.39-.12.59-.19z" fill="#fff"/></svg>