<?xml version="1.0" encoding="UTF-8"?><svg id="Layer_1" xmlns="http://www.w3.org/2000/svg" viewBox="0 0 427 454.56"><defs><style>.cls-1{fill:#fff;}</style></defs><path class="cls-1" d="M134.63,424.66c4.62-43.01,9.19-85.63,13.89-129.36-23.83,24.19-46.94,47.63-69.74,70.77-11.36-11.36-21.68-21.68-32.15-32.15,34.63-34.62,69.78-69.78,105.94-105.93h-17.92c.5-21.94,9.09-39.74,23.39-55.19-37.51-37.51-74.82-74.81-112.47-112.46,10.83-10.15,21.14-19.81,32.49-30.45,1.11,1.63,1.95,3.34,3.21,4.64,36.98,38.21,74.03,76.35,110.94,114.62,2.61,2.71,4.84,3.02,8.51,2.68,7.55-.71,15.26-.55,22.82,.12,3.18,.28,5.04-.22,7.21-2.38,38.29-38.33,76.65-76.57,114.98-114.86,1.29-1.29,2.35-2.79,3.79-4.53,10.9,10.21,21.18,19.84,31.4,29.41-37.5,37.5-74.8,74.8-112.39,112.38,14.85,16.05,23.57,33.87,24.12,55.76h-17.83c36.15,36.84,71.33,72.68,106.63,108.65-10,9.73-19.89,19.35-30.52,29.7-23.09-23.11-46.45-46.5-70.2-70.29,3.98,43.17,7.91,85.84,11.88,128.87H134.63Zm98.77-39.19c0-13.91,.33-27.24-.11-40.54-.34-10.37-7.71-17.64-17.13-18.09-12.82-.62-20.71,4.48-21.53,16.12-.99,14.02-.23,28.16-.23,42.51h39Z"/></svg>